<?xml version="1.0" encoding="utf-8"?>
<!DOCTYPE svg PUBLIC "-//W3C//DTD SVG 1.0//EN" "http://www.w3.org/TR/2001/REC-SVG-20010904/DTD/svg10.dtd">
<svg version="1.0" xmlns="http://www.w3.org/2000/svg" width="1007px" height="381px" viewBox="0 0 1007 381" preserveAspectRatio="xMidYMid meet">
 <g fill="#ffffff">  <path d="M92.40 232.15 c-1.55 -0.20 -1.90 -0.40 -1.90 -1.30 0 -1 4.65 -19.55 23.60 -94.10 4.15 -16.20 10.45 -41.20 14.10 -55.50 l6.55 -26 106.25 0 106.25 0 0 2.50 c-0.05 1.50 -2.35 11.55 -5.75 24.85 l-5.75 22.40 -63.10 0 -63.15 0 0 1.65 c0 0.85 -0.55 3.75 -1.25 6.35 -0.70 2.60 -1.25 5.05 -1.25 5.40 0 0.45 12.75 0.60 62 0.60 l62 0 0 2.05 c0 2 -10.65 45.35 -11.55 47.10 -0.45 0.80 -3.95 0.85 -62.95 0.85 -34.40 0 -62.50 0.05 -62.50 0.15 -0.05 1.60 -16.15 62.65 -16.60 62.90 -0.65 0.40 -81.20 0.50 -85 0.10z"/>
  <path fill-rule="evenodd" d="M405.85 232 c-21.10 -1.15 -39.05 -5.20 -50.35 -11.40 -14.90 -8.15 -21.25 -20.90 -18.95 -37.95 0.25 -2.15 2.10 -10.10 4 -17.65 1.95 -7.55 6 -23.40 9 -35.25 6.20 -24.40 7.45 -28.70 9.45 -32.80 4.40 -9.15 11.45 -17.10 20.65 -23.40 3.60 -2.45 13.50 -7.25 19.10 -9.25 12.40 -4.40 28.80 -7.45 46 -8.55 8.85 -0.55 69.20 -0.75 81.25 -0.25 12.05 0.50 20.05 1.30 28.50 2.80 26 4.70 41.80 15.45 45.20 30.85 2.05 9.15 1.50 14.25 -3.75 34.85 -2.20 8.65 -6.05 23.75 -8.50 33.50 -5.65 22.25 -7.10 27.30 -9.15 32.05 -3.15 7.25 -9 15 -14.90 19.75 -15.40 12.50 -34.35 18.90 -65.90 22.25 -6.35 0.70 -80.70 1.05 -91.65 0.45z m82.40 -50.25 c3 -0.80 4.45 -1.70 5.35 -3.45 0.50 -0.90 6.80 -25.15 14.95 -57.15 3 -11.95 3.55 -14.75 3.05 -15.25 -0.50 -0.50 -7.55 -0.70 -33.85 -0.80 l-33.25 -0.15 0 1.25 c0 0.70 -0.45 2 -0.95 2.90 -0.55 0.90 -2.35 7.05 -4.05 13.65 -9.25 36.05 -14.55 57.10 -14.65 57.95 -0.05 0.65 0.30 1.10 1.15 1.35 0.70 0.20 14.30 0.35 30.25 0.40 24.70 0.05 29.50 -0.05 32 -0.70z"/>
  
  <path d="M659 230.15 c0 -1.35 1.15 -6.80 2.55 -12.15 2.60 -10.10 13.55 -53 23 -90.25 3 -11.80 5.45 -21.80 5.45 -22.10 0 -0.50 -7.55 -0.65 -36 -0.65 l-36 0 0.05 -1.85 c0 -1.05 2.65 -12.25 5.85 -24.90 l5.85 -22.95 116.75 0 116.75 -0.05 0.15 1.50 c0.05 0.85 -2.55 11.95 -5.75 24.75 l-5.90 23.25 -37.10 0.15 -37.15 0.10 0 2.15 c0 1.15 -0.70 4.70 -1.55 7.85 -1.80 6.85 -15.30 60 -23 90.50 -3.05 11.95 -5.80 22.90 -6.25 24.35 l-0.70 2.55 -43.50 0.05 -43.50 0.05 0 -2.35z"/>
  <path d="M836.50 230.65 c0 -1 2.60 -12.10 5.80 -24.60 15.50 -61.15 20.30 -80 28.65 -113.05 5 -19.65 9.30 -36.25 9.55 -36.85 l0.45 -1.10 42.85 0 c23.55 0 43.15 0.15 43.50 0.30 0.40 0.15 0.70 0.85 0.70 1.55 0 1.65 -11.50 47.20 -12.05 47.85 -0.25 0.25 -0.45 0.90 -0.45 1.50 0 0.55 -2.80 12.05 -6.20 25.50 -9.60 37.95 -24.75 97.35 -25.20 99 l-0.40 1.50 -43.60 0.15 -43.60 0.10 0 -1.85z"/>
 </g>
 <g fill="#ed1d23">
  <path d="M34.50 363.40 c0 -0.35 1.55 -5.70 3.45 -11.90 1.90 -6.20 7.45 -24.20 12.30 -40 4.85 -15.80 9.70 -31.55 10.75 -35 1.80 -5.80 2.95 -9.65 7 -22.90 l1.60 -5.10 433.95 0 c342.40 0 433.95 0.15 433.95 0.60 0 0.35 -0.80 3.15 -1.75 6.25 -0.95 3.10 -2.55 8.20 -3.50 11.30 -0.95 3.05 -4.50 14.70 -7.90 25.85 -3.45 11.15 -8.85 28.80 -12.05 39.25 -3.25 10.45 -6.80 22 -7.90 25.60 l-2.10 6.65 -433.90 0 c-346.80 0 -433.90 -0.15 -433.90 -0.60z m84.75 -50.50 c7.05 -13.25 9.80 -18.05 10.45 -18.50 0.30 -0.20 7.55 -0.40 16.05 -0.40 l15.50 0 1.30 -2.45 1.30 -2.45 -1.80 -0.30 c-2.40 -0.40 -64.25 -0.40 -65.30 0 -0.65 0.25 -3.25 4.55 -3.25 5.40 0 0.10 6.10 0.10 13.50 -0.05 7.45 -0.15 14.10 -0.10 14.75 0.05 2 0.50 1.60 2.75 -1.45 8.50 -1.45 2.80 -3.75 7.10 -5.05 9.55 -1.30 2.50 -3.15 5.90 -4.10 7.65 l-1.70 3.10 2.20 0 2.20 0 5.40 -10.10z m108.25 7.75 c0.70 -1.35 1.30 -2.55 1.40 -2.70 0.10 -0.20 -13.70 -0.30 -30.65 -0.25 l-30.75 0.05 0 -1.65 c0 -0.95 0.70 -3.05 1.55 -4.65 l1.60 -2.95 31.65 0 31.60 0 1.30 -2.35 c0.75 -1.25 1.20 -2.40 1.05 -2.55 -0.15 -0.15 -13.85 -0.35 -30.40 -0.35 l-30.10 -0.10 -0.15 -1.80 c-0.20 -2.05 1.85 -6.55 3.20 -7.05 0.45 -0.15 14.75 -0.30 31.75 -0.25 17.05 0.05 31.05 0 31.15 -0.10 0.30 -0.40 2.80 -5.10 2.80 -5.25 0 -0.35 -61.70 -0.20 -64.95 0.10 l-3.05 0.35 -2.45 4.55 c-2.85 5.35 -8.30 15.50 -12.15 22.65 -1.50 2.80 -2.90 5.40 -3.05 5.85 -0.30 0.75 2.85 0.80 33.55 0.80 l33.90 0 1.20 -2.35z m19 -3.50 c1.75 -3.25 3.50 -6.50 3.85 -7.25 l0.70 -1.40 28.50 0 28.45 0 0 1.80 c0 1.25 -0.85 3.45 -2.75 6.95 -1.50 2.85 -2.75 5.30 -2.75 5.45 0 0.15 0.95 0.30 2.15 0.30 2.05 0 2.20 -0.10 3.25 -2.10 1.15 -2.30 5.85 -11.20 9.35 -17.65 5.25 -9.75 5.95 -11.35 5.40 -12.20 -1.40 -2.25 -1.75 -2.30 -31.15 -2.30 l-27.75 0 -2.85 1.15 c-3.90 1.60 -6.65 4.45 -9.70 10.10 -7.45 13.80 -11.95 22.20 -12.10 22.60 -0.10 0.20 0.80 0.40 2.05 0.40 l2.20 0 3.15 -5.85z m82.25 -3.25 c2.70 -5.05 5.80 -10.85 6.90 -12.90 2.40 -4.50 3.50 -5.80 5.55 -6.45 1.30 -0.40 8.65 -0.45 23.95 -0.10 l3.35 0.05 0 1.90 c0 1.25 -0.80 3.30 -2.45 6.35 -1.30 2.50 -3.35 6.30 -4.55 8.50 -1.15 2.20 -3 5.60 -4.05 7.55 -1.10 1.95 -1.95 3.70 -1.95 3.90 0 0.15 0.95 0.30 2.15 0.30 2.05 0 2.20 -0.10 3.25 -2.10 0.55 -1.20 2.75 -5.30 4.80 -9.15 2.10 -3.85 4.95 -9.30 6.40 -12.10 2.10 -4.10 2.85 -5.15 3.90 -5.35 2.05 -0.45 25.65 -0.20 26.90 0.25 0.90 0.35 1.10 0.80 1.10 2.40 0 2.10 -0.60 3.40 -8.40 17.90 -2.25 4.20 -4.10 7.70 -4.10 7.90 0 0.15 1 0.25 2.20 0.25 1.80 0 2.30 -0.20 2.55 -1.05 0.20 -0.55 1.20 -2.50 2.20 -4.35 2.05 -3.65 5.40 -9.90 10.40 -19.50 2.95 -5.70 3.15 -6.30 2.50 -7.25 -1.40 -2.10 -3.55 -2.25 -34.10 -2.30 -30.10 -0.05 -33.80 0.15 -37.15 2 -4.30 2.45 -5.45 3.85 -9.85 12.20 -1.60 3.05 -3.85 7.20 -5 9.25 -1.15 2.05 -2.95 5.40 -3.95 7.40 l-1.80 3.60 2.15 0 2.15 0 4.95 -9.10z m193.45 8.05 c3.55 -1.30 6.60 -4.30 9.05 -8.75 1.05 -1.90 3.05 -5.60 4.50 -8.20 1.45 -2.60 4 -7.40 5.70 -10.60 l3.10 -5.90 -1.40 0 c-2.55 0 -3.50 0.55 -4.55 2.65 -1.30 2.60 -5.40 10.20 -9.55 17.95 -1.75 3.20 -3.85 6.45 -4.65 7.25 l-1.45 1.40 -26.10 0 c-14.35 0.05 -26.60 -0.05 -27.20 -0.15 -1 -0.20 -1.15 -0.50 -1.15 -2.80 0 -2 0.35 -3.30 1.50 -5.35 0.80 -1.50 1.50 -2.85 1.50 -3.05 0 -0.65 -3.85 -0.45 -4.40 0.25 -0.30 0.30 -2 3.45 -3.80 7 -3.55 6.80 -3.70 7.80 -1.15 8.85 0.60 0.25 13.75 0.45 29.20 0.45 27.20 0.05 28.20 0 30.85 -1z m80.80 0 c4.85 -2.20 6.40 -4.05 11.25 -13.20 1.60 -3 3.05 -5.70 3.25 -6 0.20 -0.25 2 -3.65 4 -7.45 l3.60 -6.95 -2.15 0.35 c-1.20 0.20 -2.45 0.60 -2.80 0.95 -0.30 0.35 -2.35 4 -4.55 8.10 -2.15 4.15 -5 9.55 -6.35 12 -1.30 2.50 -3.15 5.30 -4.05 6.25 l-1.70 1.75 -25.95 0.15 c-16.60 0.10 -26.35 -0.05 -27.20 -0.35 -1.20 -0.45 -1.35 -0.80 -1.35 -2.85 0 -2.25 1.80 -6.20 7.50 -16.45 3.35 -6 5 -9.15 5 -9.40 0 -0.60 -3.30 -0.35 -4.10 0.30 -0.45 0.30 -1.75 2.40 -2.90 4.60 -1.15 2.20 -2.30 4.25 -2.50 4.50 -0.20 0.30 -1.90 3.45 -3.75 7 -1.85 3.60 -4.25 8.10 -5.30 10.05 -2.60 4.80 -2.55 6.65 0.30 7.35 0.55 0.10 13.70 0.25 29.25 0.30 27.35 0.05 28.30 0 30.50 -1z m23.25 -3.55 c1.35 -2.55 2.85 -5.45 3.40 -6.40 0.55 -0.95 2.75 -5.10 4.95 -9.25 2.20 -4.10 4.35 -7.80 4.80 -8.15 0.65 -0.50 6.40 -0.60 28 -0.50 23.45 0.15 27.20 0.25 27.60 0.90 0.90 1.45 0.50 3.95 -1.20 7.10 -0.90 1.75 -3.50 6.60 -5.75 10.80 -2.25 4.20 -4.40 8.20 -4.85 8.90 l-0.80 1.20 2.55 0 c1.40 0 2.55 -0.20 2.55 -0.45 0 -0.20 1.10 -2.40 2.45 -4.85 5.25 -9.60 12.35 -23.05 13 -24.60 0.65 -1.55 0.60 -1.75 -0.30 -2.70 -0.60 -0.55 -2 -1.20 -3.20 -1.45 -2.55 -0.50 -59.15 -0.50 -60.85 0 -0.75 0.20 -1.70 1.25 -2.55 2.80 -2.90 5.40 -7.10 13.20 -9.05 16.75 -1.10 2.05 -3.25 6.15 -4.75 9.15 l-2.75 5.35 2.15 0 2.20 0 2.40 -4.60z m80.15 0.70 c1.10 -2.15 2.45 -4.70 2.95 -5.65 1.65 -2.95 4.45 -8.05 6.50 -11.95 1.10 -2.05 3.10 -5.75 4.40 -8.15 1.30 -2.40 2.25 -4.50 2.15 -4.65 -0.15 -0.10 -1.20 -0.10 -2.30 0.10 -2.30 0.35 -1.75 -0.45 -9.75 14.70 -1.40 2.60 -3.35 6.20 -4.35 8 -1.05 1.80 -2.80 5.10 -3.95 7.40 l-2.05 4.10 2.20 0 2.25 0 1.95 -3.90z m75.65 2.50 c4.75 -2.35 6.65 -5.20 17.95 -27 0.70 -1.30 1 -2.55 0.80 -3.30 -0.60 -2.50 -1.40 -2.55 -31.30 -2.55 l-27.75 0 -3.15 1.45 c-3.50 1.65 -6.60 4.65 -8.65 8.60 -0.70 1.35 -3.30 6.30 -5.80 10.95 -2.50 4.70 -4.65 9 -4.85 9.65 -0.40 1.30 0.30 2.45 1.95 3.15 0.55 0.20 13.95 0.35 29.75 0.30 l28.75 -0.10 2.30 -1.15z m22.30 -2.85 c1.20 -2.20 2.90 -5.40 3.80 -7.15 l1.55 -3.10 25.30 0.10 25.25 0.15 -0.15 5 c-0.05 2.75 -0.25 5.95 -0.40 7.15 l-0.25 2.10 2.95 0 3 0 0.50 -4.60 c0.30 -2.55 0.70 -5.90 0.90 -7.50 0.30 -2.65 0.40 -2.80 1.90 -3.10 2.20 -0.45 5.25 -2.70 7.30 -5.40 2.80 -3.70 5.65 -9.70 5.30 -11.05 -0.65 -2.55 -0.80 -2.60 -32.30 -2.75 -16.10 -0.10 -30.15 -0.05 -31.25 0.15 -1.95 0.25 -2.10 0.40 -4.45 4.90 -1.35 2.55 -3.60 6.75 -5.05 9.35 -1.45 2.60 -3.75 6.90 -5.10 9.50 -1.35 2.60 -3.20 6.05 -4.15 7.65 l-1.65 2.90 2.40 -0.15 2.40 -0.15 2.20 -4z"/>
  <path d="M256 301.35 c0 -2.25 0.90 -4.10 2.75 -5.85 l1.35 -1.25 26.25 -0.10 c14.50 -0.05 26.85 0.15 27.50 0.40 0.90 0.30 1.15 0.80 1.15 2.05 0 2.35 -1.55 6.40 -2.45 6.45 -0.45 0.05 -13.35 0.10 -28.65 0.15 l-27.90 0.05 0 -1.90z"/>
  <path d="M728.15 317.50 c-0.95 -0.40 -1.15 -0.85 -1.15 -2.55 0 -2.05 0.50 -3.15 7.40 -15.95 2.75 -5.10 0.50 -4.75 29.75 -4.90 14.10 -0.10 26.35 0 27.25 0.15 1.55 0.30 1.60 0.40 1.60 2.60 0 1.90 -0.70 3.65 -3.85 9.80 -4.20 8.05 -6.10 10.50 -8.65 11.05 -2.50 0.45 -51.10 0.30 -52.35 -0.20z"/>
  <path d="M814.70 303.05 c-1 -1 1.25 -7.40 3 -8.70 0.60 -0.40 52.85 -0.40 54.70 0 0.95 0.25 1.10 0.55 1.10 2.90 0 2.25 -0.25 2.90 -1.45 4.20 l-1.45 1.55 -12.45 0.05 c-6.80 0 -19.35 0.05 -27.80 0.10 -8.50 0.05 -15.55 0 -15.65 -0.10z"/>
 </g>
 <g fill="#000000">
  <path d="M70.90 241.20 c-0.15 -0.15 0.95 -5.05 2.45 -10.85 3.65 -14.30 25.05 -98.55 38.90 -153.10 3.75 -14.85 7.05 -27.85 7.30 -28.85 l0.50 -1.90 123.75 0 c117.65 0 123.75 0.05 123.50 0.90 -0.15 0.45 -1.50 5.90 -3.05 12.10 -1.55 6.20 -2.90 11.65 -3.05 12.20 -0.25 0.65 0.35 0.40 2.35 -1.05 2.95 -2.10 6.80 -4.65 7.10 -4.65 0.15 0 1.85 -0.90 3.90 -2.05 11.70 -6.45 29.10 -11.80 46.95 -14.45 4 -0.60 7.80 -1.15 8.50 -1.25 0.70 -0.10 3.50 -0.35 6.25 -0.55 2.75 -0.15 5.45 -0.45 6 -0.60 1.65 -0.45 85.10 -0.50 90.75 -0.10 7.50 0.60 12.05 1 13.75 1.25 9.65 1.30 14.05 2.10 20 3.55 17.45 4.15 29.90 10 38.15 17.85 1.70 1.65 3.25 2.90 3.40 2.70 0.15 -0.15 1.55 -5.20 3 -11.20 1.50 -6 2.95 -11.75 3.25 -12.75 l0.50 -1.90 186.45 0 c102.60 0 186.50 0.05 186.50 0.15 0 0.05 -0.45 1.80 -1.05 3.85 -0.90 3.40 -8.15 31.70 -23.50 92.50 -3.05 11.95 -7.15 28.15 -9.20 36 -2 7.85 -6.30 24.70 -9.50 37.50 -3.25 12.80 -6.05 23.65 -6.30 24.10 -0.45 0.80 -4.15 0.90 -60.95 0.90 -39.05 0 -60.55 -0.15 -60.75 -0.50 -0.15 -0.25 0.40 -3 1.20 -6.10 0.85 -3.10 4.65 -18 8.50 -33.15 3.80 -15.10 10.35 -40.90 14.50 -57.30 4.15 -16.40 7.55 -30 7.55 -30.25 0 -0.25 -11.10 -0.40 -27.60 -0.35 l-27.65 0.10 -3.05 11.90 c-1.70 6.55 -6.25 24.30 -10.10 39.40 -3.85 15.15 -9.75 38.30 -13.10 51.50 -3.35 13.20 -6.20 24.15 -6.30 24.35 -0.15 0.20 -27.55 0.35 -60.95 0.40 -48.80 0 -60.75 -0.10 -60.75 -0.60 0 -0.70 5.80 -23.80 13.25 -52.90 2.60 -10.05 5.95 -23.30 7.50 -29.50 1.55 -6.20 4.75 -18.65 7.05 -27.70 2.35 -9 4.15 -16.50 4.05 -16.60 -0.10 -0.10 -12.50 -0.25 -27.60 -0.25 -21.75 -0.05 -27.45 0.10 -27.75 0.60 -0.25 0.35 -2.25 7.85 -4.45 16.65 -7.45 29.50 -12.90 50.65 -14.05 54.10 -3 9.10 -7.65 16.40 -15.45 24.25 -16.50 16.55 -42.95 26.70 -78.80 30.25 -3.85 0.35 -4.45 0.40 -15 1 -14.85 0.85 -80.65 0.50 -89 -0.50 -0.80 -0.10 -3.10 -0.35 -5.10 -0.55 -1.95 -0.15 -4.10 -0.40 -4.75 -0.50 -0.65 -0.10 -3.05 -0.45 -5.40 -0.75 -10.65 -1.40 -25 -5.25 -33 -8.85 -8.80 -3.95 -14.45 -7.60 -19.80 -12.95 -6.65 -6.60 -10.15 -13.65 -11.20 -22.65 -0.50 -4.10 -0.40 -9.70 0.25 -12.85 0.15 -0.65 0.35 -1.75 0.50 -2.45 l0.25 -1.25 -55.85 0 -55.90 0 -8.05 31.90 -8 31.85 -60.75 0.15 c-33.45 0.05 -60.90 0 -61.05 -0.20z m105.35 -10.80 c0.15 -0.15 3.90 -14.30 8.25 -31.40 4.40 -17.10 8.05 -31.20 8.15 -31.35 0.15 -0.10 28.30 -0.20 62.55 -0.20 58.35 0 62.30 -0.05 62.75 -0.85 0.45 -0.90 11.55 -44.60 11.55 -45.55 0 -0.40 -17.15 -0.55 -62.55 -0.55 -59.30 0 -62.50 -0.05 -62.25 -0.85 0.75 -2.65 3.30 -13.30 3.20 -13.40 -0.10 -0.10 -2.85 -0.30 -6.15 -0.45 -3.30 -0.20 -7.70 -0.40 -9.75 -0.55 -2.05 -0.15 -5.75 -0.35 -8.25 -0.50 -2.45 -0.15 -6.85 -0.40 -9.75 -0.55 -2.90 -0.15 -5.35 -0.40 -5.45 -0.50 -0.10 -0.10 37.10 -0.20 82.75 -0.20 l82.95 0 5.70 -22.40 c3.15 -12.30 5.70 -22.75 5.75 -23.25 0.05 -0.90 -3.25 -0.95 -104.70 -0.95 l-104.75 -0.05 -6.55 25.95 c-3.65 14.25 -10 39.35 -14.15 55.70 -4.15 16.35 -11.10 43.75 -15.45 60.85 l-7.90 31.10 1.80 0.15 c3.60 0.30 81.95 0.15 82.25 -0.20z m314.80 -0.05 c1.25 -0.15 4.30 -0.40 6.70 -0.60 2.40 -0.20 4.85 -0.40 5.45 -0.50 0.55 -0.10 2.95 -0.45 5.30 -0.75 6 -0.80 15.15 -2.70 21.15 -4.50 23.90 -6.95 39.85 -19.10 47.15 -35.95 2.05 -4.75 3.50 -9.80 9.15 -32.05 2.45 -9.75 6.30 -24.85 8.50 -33.50 2.20 -8.65 4.25 -17.60 4.50 -19.90 1 -9.15 -1.45 -17.75 -6.90 -24.30 -9.20 -11.05 -28.85 -18.50 -54.30 -20.50 -1.65 -0.15 -4.90 -0.40 -7.25 -0.60 -9 -0.70 -85 -0.25 -90.50 0.55 -0.70 0.10 -2.80 0.30 -4.75 0.50 -10.35 0.95 -25.60 4.25 -35 7.55 -5.60 2 -15.50 6.80 -19.10 9.25 -9.20 6.30 -16.25 14.25 -20.65 23.40 -2 4.10 -3.25 8.40 -9.45 32.80 -3 11.85 -7 27.35 -8.80 34.50 -3.75 14.50 -4.60 19.25 -4.45 24.80 0.40 11.95 7.05 21.90 19.20 28.55 8.70 4.75 22.75 8.65 36.75 10.15 1.65 0.20 3.55 0.45 4.25 0.55 0.70 0.10 4.65 0.35 8.75 0.50 4.15 0.20 7.55 0.35 7.60 0.45 0.25 0.15 74.45 -0.20 76.70 -0.40z m254.20 -2.10 c0.40 -1.35 3.15 -12.30 6.20 -24.25 3 -11.95 9.25 -36.50 13.85 -54.50 11.20 -44 10.95 -42.95 10.70 -43.20 -0.15 -0.10 -3.30 -0.35 -7 -0.55 -3.70 -0.15 -8.10 -0.40 -9.75 -0.50 -1.65 -0.15 -5.60 -0.35 -8.75 -0.50 -8.40 -0.35 -13.20 -0.80 -13.60 -1.15 -0.20 -0.20 25.25 -0.35 56.50 -0.35 l56.85 0 5.80 -23.10 c3.25 -12.75 5.80 -23.15 5.75 -23.15 0 -0.05 -51.90 -0.05 -115.30 -0.10 l-115.25 -0.05 -5.55 21.95 c-3.05 12.10 -5.70 22.55 -5.85 23.35 l-0.35 1.35 36.50 0 c34.60 0 36.55 0.05 36.30 0.90 -0.15 0.45 -2.95 11.55 -6.25 24.60 -7.50 29.75 -19.70 77.65 -23 90.50 -1.40 5.35 -2.55 10.10 -2.55 10.50 0 0.65 4.85 0.75 42 0.75 l42.05 0 0.70 -2.50z m177.35 1 c1.45 -5.10 31.30 -122.95 31.20 -123.10 -0.05 -0.05 -2.45 -0.25 -5.30 -0.40 -2.90 -0.15 -6.50 -0.40 -8 -0.50 -1.50 -0.10 -5.90 -0.35 -9.75 -0.55 -3.85 -0.15 -7.55 -0.35 -8.25 -0.45 -0.70 -0.05 -2.25 -0.20 -3.50 -0.30 -1.25 -0.10 6.30 -0.30 16.75 -0.45 l18.95 -0.25 5.85 -23.10 c3.95 -15.50 5.65 -23.15 5.25 -23.30 -0.30 -0.10 -19.20 -0.15 -42 -0.10 -40.60 0.05 -41.50 0.05 -41.90 1.05 -0.20 0.50 -4.45 17.05 -9.45 36.70 -8.35 33.05 -13.20 52.20 -28.65 113.05 -3.20 12.50 -5.80 22.90 -5.80 23 0 0.15 18.95 0.25 42.10 0.20 l42.10 -0.05 0.40 -1.45z"/>
  <path d="M424.60 183.65 c-0.60 -0.10 -1.30 -0.60 -1.55 -1.05 -0.30 -0.60 1.20 -7.35 4.95 -22.10 9.80 -38.75 13.10 -51.25 13.80 -52.60 1 -1.90 0.90 -2.15 -0.65 -2.20 -0.80 -0.05 -4.30 -0.20 -7.90 -0.40 -6.35 -0.35 -8.15 -0.45 -18.50 -1.05 -2.75 -0.20 -5.10 -0.40 -5.20 -0.55 -0.35 -0.35 101.05 -0.10 102.40 0.25 2.60 0.70 2.55 1.05 -1.65 17.70 -8.25 32.50 -14.70 57.25 -15.20 58.15 -0.90 1.75 -2.35 2.65 -5.35 3.45 -2.55 0.65 -7.40 0.75 -33.50 0.70 -16.75 -0.05 -31 -0.20 -31.65 -0.30z m57.05 -23.55 c1.85 -7.35 5.25 -20.70 7.55 -29.70 2.35 -9.05 4.05 -16.40 3.90 -16.45 -0.20 0 -8 0 -17.35 0 l-17 0.05 -3.55 13.90 c-2 7.60 -5.30 20.60 -7.40 28.85 -2.15 8.25 -3.95 15.40 -4.10 15.85 -0.25 0.80 0.60 0.90 11.15 1 6.25 0.10 14.10 0.10 17.40 0 l6.05 -0.15 3.35 -13.35z"/>
 </g>
 <g fill="#ffef00">
  <path d="M109.15 319.40 c1.50 -2.85 3.50 -6.60 4.45 -8.40 7 -13.10 7.90 -15 7.30 -15.05 -0.35 -0.05 -7.20 -0.05 -15.25 0 -8 0.05 -14.70 -0.15 -14.85 -0.35 -0.35 -0.55 3.05 -7.15 4.10 -8 0.65 -0.50 8.45 -0.60 36.15 -0.60 19.40 0 35.45 0.15 35.60 0.35 0.25 0.25 -3.15 7.10 -4 8.15 -0.15 0.15 -7.30 0.25 -15.90 0.25 -8.65 0 -15.80 0.15 -15.90 0.25 -0.45 0.50 -4.80 8.50 -10.10 18.40 l-5.40 10.10 -4.45 0 -4.50 0 2.75 -5.10z"/>
  <path d="M155.50 324.20 c0 -0.30 2.50 -5.05 7.75 -14.70 1.70 -3.15 4.80 -8.90 6.90 -12.75 2.10 -3.85 4.10 -7.60 4.55 -8.35 l0.75 -1.35 35.65 -0.05 c19.65 0 35.85 0.15 36.05 0.30 0.35 0.35 -3.45 7.70 -4.30 8.25 -0.25 0.20 -14.30 0.30 -31.25 0.25 -17 -0.05 -31.15 0 -31.50 0.10 -0.65 0.25 -3.30 5.05 -2.95 5.40 0.10 0.10 13.95 0.25 30.75 0.30 16.85 0.05 30.85 0.25 31.15 0.45 0.40 0.25 -0.10 1.60 -1.50 4.15 l-2.10 3.80 -31.65 0 -31.65 0 -1.60 2.95 c-0.85 1.60 -1.55 3 -1.55 3.10 0 0.10 14.15 0.15 31.50 0.10 17.30 -0.10 31.50 0 31.50 0.15 0 0.15 -0.95 2.05 -2.10 4.25 l-2.15 3.95 -36.10 0 c-19.90 0 -36.15 -0.15 -36.15 -0.30z"/>
  <path d="M236 324.20 c0 -0.15 0.65 -1.40 1.40 -2.85 0.80 -1.45 3.30 -6.10 5.60 -10.35 2.25 -4.25 5.30 -9.90 6.70 -12.50 3.05 -5.65 5.80 -8.55 9.70 -10.10 2.85 -1.15 3 -1.15 30.55 -1.30 33.75 -0.20 34.55 -0.10 34.55 4.60 0 2.10 -0.45 3.15 -5.50 12.55 -4.55 8.50 -8.55 16 -9.60 18.15 l-1.10 2.10 -4.40 0 c-4.65 0 -5.10 -0.25 -3.70 -2.25 0.90 -1.35 6.30 -11.55 6.30 -11.95 0 -0.15 -12.15 -0.30 -26.95 -0.30 l-27 0 -0.70 1.40 c-0.35 0.75 -2.10 4 -3.85 7.25 l-3.15 5.85 -4.45 0 c-2.40 0 -4.40 -0.10 -4.40 -0.30z m75 -22.65 c0.95 -0.05 2.75 -4.50 2.05 -5.20 -0.25 -0.25 -11 -0.50 -25.95 -0.55 l-25.50 -0.05 -1.35 1.25 c-1.30 1.20 -2.75 3.50 -2.75 4.35 0 0.30 47 0.45 53.50 0.20z"/>
  <path d="M316.60 324.15 c0.75 -1.70 5.45 -10.65 7.15 -13.65 1.15 -2.05 3.40 -6.20 5 -9.25 1.60 -3 3.40 -6.20 3.95 -7.05 2.30 -3.45 6.40 -5.95 10.90 -6.70 4.40 -0.70 62.55 -0.65 65.90 0.05 5.05 1.10 5.25 3.60 0.80 12.10 -4.95 9.55 -8.30 15.80 -10.35 19.45 -1 1.85 -2 3.80 -2.20 4.35 -0.30 0.95 -0.70 1.05 -4.80 1.05 -2.70 0 -4.45 -0.20 -4.45 -0.50 0 -0.30 1.10 -2.50 2.40 -4.90 4.90 -8.80 11 -20.40 11.30 -21.45 0.20 -0.60 0.10 -1.20 -0.20 -1.40 -0.60 -0.35 -25.40 -0.55 -25.70 -0.20 -0.10 0.10 -1.80 3.35 -3.80 7.20 -2.05 3.85 -4.90 9.25 -6.35 12 -1.50 2.75 -3.15 5.95 -3.75 7.15 l-1.10 2.10 -4.40 0 c-2.65 0 -4.40 -0.20 -4.40 -0.50 0 -0.30 1.10 -2.50 2.45 -4.90 1.35 -2.40 3.30 -6.05 4.40 -8.10 1.10 -2.05 3.30 -6.20 4.90 -9.15 1.55 -2.95 2.75 -5.50 2.65 -5.65 -0.50 -0.50 -24.20 -0.35 -25.20 0.20 -1.45 0.80 -2.40 2 -4.55 6.10 -1.10 2.05 -4.20 7.85 -6.90 12.90 l-4.95 9.10 -4.45 0 c-2.45 0 -4.35 -0.15 -4.25 -0.35z"/>
  <path d="M460.65 324 c-1.35 -0.55 -2.15 -2 -2.15 -4 0 -1.35 5.60 -13.05 7.10 -14.85 0.65 -0.80 8.90 -0.90 8.90 -0.15 0 0.25 -1 2.30 -2.25 4.55 -2.25 4.05 -2.85 6.45 -1.60 6.45 0.30 0 11.90 0.05 25.75 0.05 l25.15 0.05 1.40 -1.30 c0.80 -0.75 2.85 -4 4.60 -7.20 4.15 -7.75 8.25 -15.35 9.55 -17.95 1.20 -2.35 1.85 -2.65 6.55 -2.65 2.90 0 3.35 0.10 3.35 0.90 0 0.50 -0.30 1.30 -0.70 1.85 -0.35 0.55 -1.95 3.50 -3.55 6.50 -1.60 3.05 -4.05 7.65 -5.50 10.25 -1.45 2.60 -3.45 6.30 -4.50 8.20 -2.45 4.45 -5.50 7.45 -9.05 8.75 -2.65 1 -3.65 1.05 -32.35 1 -16.30 0 -30.10 -0.20 -30.70 -0.45z"/>
  <path d="M541.60 324.15 c-0.60 -0.10 -1.50 -0.75 -1.90 -1.45 -1.15 -1.70 -0.60 -4.60 1.75 -8.95 1.05 -1.90 3.45 -6.40 5.30 -10 1.85 -3.60 3.55 -6.70 3.75 -7 0.20 -0.25 1.35 -2.30 2.50 -4.50 1.15 -2.20 2.45 -4.30 2.90 -4.60 0.80 -0.65 7.65 -0.90 8.25 -0.35 0.30 0.30 -1.95 4.90 -5.30 10.95 -4.35 7.80 -8.35 15.70 -8.35 16.45 0 0.45 0.50 1 1.15 1.25 0.60 0.20 12.20 0.35 25.75 0.35 l24.60 -0.05 1.70 -1.75 c0.90 -0.95 2.75 -3.75 4.05 -6.25 1.35 -2.45 4.20 -7.85 6.35 -12 2.20 -4.10 4.30 -7.85 4.70 -8.30 0.55 -0.60 1.75 -0.85 4.70 -0.90 4.50 -0.10 4.80 0.25 3.05 3.15 -0.50 0.85 -2.75 4.95 -4.95 9.05 -2.15 4.15 -5.05 9.55 -6.35 12 -4.35 8.15 -6.05 10.10 -10.75 12.20 -2.20 1 -3.10 1.05 -32 0.95 -16.35 0 -30.25 -0.15 -30.90 -0.25z"/>
  <path d="M616.50 324.30 c0 -0.30 10.80 -20.75 13.75 -26.05 0.60 -1.10 2.05 -3.80 3.25 -6 1.20 -2.20 2.35 -4.30 2.65 -4.60 0.35 -0.50 7.50 -0.60 33.05 -0.50 30.10 0.10 32.70 0.15 33.95 0.95 2.15 1.45 2.55 2.65 1.65 5.30 -0.65 2.10 -6 12.35 -13.35 25.80 -1.35 2.45 -2.45 4.65 -2.45 4.85 0 0.25 -2.15 0.45 -4.80 0.45 l-4.80 0 1.90 -3.35 c1.65 -3 4.65 -8.65 10.85 -20.30 1 -1.85 1.70 -3.65 1.55 -4.05 -0.15 -0.35 -1 -0.80 -1.85 -0.90 -3.25 -0.45 -50.80 -0.15 -51.30 0.35 -0.25 0.30 -2.25 3.90 -4.45 8 -2.15 4.15 -4.40 8.30 -4.95 9.25 -0.55 0.95 -2.05 3.85 -3.40 6.40 l-2.40 4.60 -4.40 0 c-2.45 0 -4.45 -0.10 -4.45 -0.20z"/>
  <path d="M697 324.25 c0 -0.25 7.70 -14.75 8.70 -16.40 0.35 -0.60 1.80 -3.25 3.15 -5.85 5.85 -11.15 7.75 -14.40 8.30 -14.65 0.35 -0.15 2.30 -0.20 4.35 -0.15 4.50 0.05 4.45 -0.15 0.95 6.35 -1.40 2.60 -3.70 6.85 -5.05 9.45 -1.40 2.60 -3.05 5.65 -3.65 6.75 -2.65 4.75 -4.25 7.70 -5.95 11.15 l-1.85 3.60 -4.50 0 c-2.45 0 -4.45 -0.10 -4.45 -0.25z"/>
  <path d="M719.65 324 c-0.60 -0.25 -1.45 -1.05 -1.95 -1.75 -1.20 -1.85 -0.55 -3.65 4.95 -13.95 2.50 -4.70 5.10 -9.65 5.80 -11 2.05 -3.95 5.15 -6.95 8.65 -8.60 l3.15 -1.45 29.25 0 c32.50 0 32.10 -0.05 32.95 3.05 0.45 1.65 -0.05 4.75 -0.95 5.95 -0.20 0.30 -1.75 3.20 -3.50 6.50 -8.10 15.55 -9.95 18.15 -14.45 20.35 l-2.30 1.15 -30.25 0.10 c-16.90 0.05 -30.75 -0.10 -31.35 -0.35z m61.65 -8.85 c1.40 -1 4.40 -6 8.40 -14 2.05 -4.10 2.20 -4.95 0.95 -5.25 -0.50 -0.10 -12.10 -0.15 -25.75 -0.15 -28.40 0 -26.25 -0.35 -29 4.75 -5.40 10.05 -7.40 13.95 -7.40 14.45 0 0.30 0.50 0.75 1.15 1 0.60 0.25 12.15 0.40 25.65 0.35 24.10 -0.10 24.55 -0.10 26 -1.15z"/>
  <path d="M796.75 320.15 c1.30 -2.40 3.40 -6.30 4.60 -8.65 1.25 -2.35 3.65 -6.85 5.40 -10 1.70 -3.15 4.15 -7.70 5.45 -10.10 l2.35 -4.40 32.60 0.15 c26.90 0.10 32.85 0.20 34 0.80 1.75 0.95 2.60 3.70 1.75 6.10 -0.95 2.75 -4.50 8.90 -6.45 11.15 -1.80 2.05 -5.55 4.30 -7.15 4.30 -0.55 0 -0.80 0.45 -0.85 1.40 0 0.75 -0.10 1.80 -0.20 2.35 -0.10 0.55 -0.45 3.30 -0.75 6.15 l-0.60 5.10 -4.50 0 -4.50 0 0.35 -6.10 c0.15 -3.40 0.35 -6.60 0.40 -7.15 0.10 -1 -0.25 -1 -23.65 -1.15 l-23.80 -0.10 -1.55 3.10 c-0.90 1.75 -2.60 4.95 -3.80 7.15 l-2.20 4 -4.65 0.15 -4.60 0.15 2.35 -4.40z m59.90 -18.65 l12.45 0 1.45 -1.55 c1.50 -1.60 1.95 -3.90 0.85 -4 -3 -0.20 -52.05 -0.15 -52.35 0.05 -0.60 0.40 -3.05 5.10 -2.85 5.45 0.10 0.15 6.45 0.25 14.15 0.20 7.65 -0.10 19.50 -0.15 26.30 -0.15z"/>
 </g>
</svg>